<?xml version="1.0" standalone="no"?>
<!DOCTYPE svg PUBLIC "-//W3C//DTD SVG 20010904//EN"
 "http://www.w3.org/TR/2001/REC-SVG-20010904/DTD/svg10.dtd">
<svg version="1.0" xmlns="http://www.w3.org/2000/svg"
 width="512.000000pt" height="512.000000pt" viewBox="0 0 512.000000 512.000000"
 preserveAspectRatio="xMidYMid meet">

<g transform="translate(0.000000,512.000000) scale(0.100000,-0.100000)"
fill="#000000" stroke="none">
<path d="M2825 4580 c-361 -74 -599 -286 -705 -629 -39 -125 -50 -239 -50
-538 l0 -283 -272 0 c-302 0 -315 -3 -335 -60 -17 -49 -17 -671 0 -720 19 -54
44 -59 345 -59 l262 -1 0 -859 0 -860 24 -28 24 -28 359 -3 c386 -3 422 0 441
43 9 19 12 253 12 885 l0 859 335 3 c305 3 336 5 352 21 17 16 18 46 18 392
l0 374 -23 23 c-22 23 -24 23 -353 26 l-331 3 4 267 c3 287 6 301 61 353 41
39 66 43 345 48 l274 6 24 28 24 28 0 340 0 340 -25 24 -24 25 -348 -1 c-297
-1 -361 -3 -438 -19z"/>
</g>
</svg>
