<?xml version="1.0" standalone="no"?>
<!DOCTYPE svg PUBLIC "-//W3C//DTD SVG 20010904//EN"
 "http://www.w3.org/TR/2001/REC-SVG-20010904/DTD/svg10.dtd">
<svg version="1.0" xmlns="http://www.w3.org/2000/svg"
 width="512.000000pt" height="512.000000pt" viewBox="0 0 512.000000 512.000000"
 preserveAspectRatio="xMidYMid meet">

<g transform="translate(0.000000,512.000000) scale(0.100000,-0.100000)"
fill="#000000" stroke="none">
<path d="M1515 5114 c-651 -42 -1191 -445 -1416 -1059 l-29 -80 202 -202 203
-203 11 87 c30 239 133 457 299 632 131 138 291 239 465 295 181 58 174 58
1360 54 l1085 -3 97 -27 c410 -113 703 -406 816 -816 l27 -97 3 -1085 c4
-1186 4 -1179 -54 -1360 -56 -174 -157 -334 -295 -465 -175 -166 -393 -269
-632 -299 l-87 -11 203 -203 202 -202 80 29 c248 91 454 226 629 413 185 196
322 446 384 703 47 191 47 189 47 1345 0 1153 0 1159 -46 1345 -139 565 -588
1018 -1149 1161 -190 48 -160 47 -1290 49 -586 1 -1087 0 -1115 -1z"/>
<path d="M3850 4078 c-66 -46 -66 -47 58 -170 123 -124 124 -124 170 -58 29
44 30 118 1 170 -43 77 -159 106 -229 58z"/>
<path d="M2440 3830 c-274 -27 -530 -140 -737 -325 -68 -61 -178 -194 -220
-264 l-25 -43 173 -174 173 -173 38 71 c112 206 274 339 498 410 64 20 96 23
220 23 124 0 156 -4 220 -23 270 -85 467 -282 551 -552 20 -64 24 -96 24 -220
0 -124 -3 -156 -23 -220 -73 -231 -237 -423 -439 -512 l-46 -20 175 -175 175
-175 44 25 c70 42 203 152 264 220 240 268 358 620 325 969 -15 157 -40 255
-103 403 -118 280 -372 534 -652 652 -148 63 -246 88 -400 103 -119 11 -123
11 -235 0z"/>
</g>
</svg>
